<svg xmlns="http://www.w3.org/2000/svg" xmlns:xlink="http://www.w3.org/1999/xlink" width="500" zoomAndPan="magnify" viewBox="0 0 375 374.999991" height="500" preserveAspectRatio="xMidYMid meet" version="1.0"><defs><clipPath id="7f486a155a"><path d="M 6 2 L 362.820312 2 L 362.820312 375 L 6 375 Z M 6 2 " clip-rule="nonzero" data-index="0"></path></clipPath></defs><g clip-path="url(#7f486a155a)"></g><path fill="#fb0202" d="M 357.605469 177.070312 C 357.632812 177.375 357.65625 177.675781 357.492188 178.308594 C 357.042969 179.027344 356.777344 179.417969 356.421875 179.578125 C 350.550781 169.394531 341.546875 166.890625 331.53125 172.433594 C 329.25 173.699219 326.941406 174.914062 324.621094 175.832031 C 324.59375 132.972656 324.59375 90.433594 324.59375 47.464844 C 323.097656 48.257812 322.246094 48.675781 321.421875 49.152344 C 302.273438 60.265625 283.136719 71.40625 263.976562 82.496094 C 247.09375 92.269531 230.1875 101.988281 213.179688 111.40625 C 212.9375 107.636719 212.789062 104.183594 212.679688 100.730469 C 212.527344 96.003906 210.683594 91.796875 206.675781 89.574219 C 202.960938 87.507812 198.53125 86.734375 194.414062 85.394531 C 216.019531 72.800781 237.613281 60.1875 259.234375 47.617188 C 282.714844 33.960938 306.203125 20.3125 329.746094 6.757812 C 332.613281 5.105469 335.828125 4.050781 338.972656 2.46875 C 340.0625 2.21875 341.0625 2.21875 342.363281 2.21875 C 343.816406 2.671875 344.953125 3.175781 346.121094 3.570312 C 351.855469 5.515625 355.582031 9.332031 357.046875 15.703125 C 357.144531 16.566406 357.304688 16.949219 357.464844 17.335938 C 357.519531 17.644531 357.574219 17.953125 357.425781 18.742188 C 357.160156 19.808594 357.050781 20.402344 357.050781 20.992188 C 357.042969 71.992188 357.042969 122.988281 357.070312 173.984375 C 357.070312 175.015625 357.417969 176.042969 357.605469 177.070312 Z M 357.605469 177.070312 " fill-opacity="1" fill-rule="nonzero" data-index="2" style="opacity: 1;"></path><path fill="#04af4e" d="M 194.15625 85.5 C 198.53125 86.734375 202.960938 87.507812 206.675781 89.574219 C 210.683594 91.796875 212.527344 96.003906 212.679688 100.730469 C 212.789062 104.183594 212.9375 107.636719 213.082031 111.722656 C 213.0625 112.835938 213.011719 113.3125 213.011719 113.789062 C 213.007812 155.21875 213.007812 196.652344 213.015625 238.082031 C 213.015625 239.035156 213.121094 239.988281 213.105469 241.28125 C 213.078125 253.910156 213.121094 266.199219 213.160156 278.488281 C 203.742188 288.859375 193.335938 289.816406 182.71875 281.441406 C 180.644531 279.804688 179.851562 278.050781 179.859375 275.371094 C 179.941406 228.746094 179.917969 182.117188 179.917969 135.488281 C 179.917969 134.070312 179.917969 132.648438 179.917969 130.527344 C 178.242188 131.394531 177.007812 131.976562 175.832031 132.65625 C 133.015625 157.425781 90.191406 182.1875 47.425781 207.042969 C 45.175781 208.347656 43.402344 208.371094 41.136719 207.34375 C 30.800781 202.664062 25.757812 193.777344 27.5625 182.648438 C 27.761719 181.417969 29.101562 180.03125 30.28125 179.347656 C 63.519531 160.023438 96.808594 140.785156 130.085938 121.527344 C 147.914062 111.210938 165.71875 100.84375 183.589844 90.59375 C 186.894531 88.699219 190.453125 87.257812 194.15625 85.5 Z M 194.15625 85.5 " fill-opacity="1" fill-rule="nonzero" data-index="3" style="opacity: 1;"></path><path fill="#fec004" d="M 213.398438 278.414062 C 213.121094 266.199219 213.078125 253.910156 213.339844 241.222656 C 239.089844 226.042969 264.546875 211.277344 289.984375 196.476562 C 301.558594 189.738281 313.09375 182.929688 324.644531 176.152344 C 326.941406 174.914062 329.25 173.699219 331.53125 172.433594 C 341.546875 166.890625 350.550781 169.394531 356.449219 179.820312 C 356.9375 181.3125 357.304688 182.328125 357.671875 183.339844 C 357.683594 188.851562 357.707031 194.363281 357.707031 199.878906 C 357.710938 252.269531 357.710938 304.664062 357.710938 357.058594 C 357.710938 368.144531 344.507812 376.472656 334.648438 371.269531 C 331.25 369.476562 328.382812 366.507812 325.65625 363.703125 C 324.707031 362.722656 324.636719 360.621094 324.636719 359.027344 C 324.585938 312.507812 324.59375 265.988281 324.59375 219.46875 C 324.59375 218.066406 324.59375 216.664062 324.59375 214.128906 C 287.089844 235.832031 250.363281 257.085938 213.398438 278.414062 Z M 213.398438 278.414062 " fill-opacity="1" fill-rule="nonzero" data-index="4" style="opacity: 1;"></path><path fill="#e33d3b" d="M 357.695312 176.738281 C 357.417969 176.042969 357.070312 175.015625 357.070312 173.984375 C 357.042969 122.988281 357.042969 71.992188 357.050781 20.992188 C 357.050781 20.402344 357.160156 19.808594 357.398438 18.976562 C 357.65625 19.445312 357.800781 20.152344 357.800781 20.863281 C 357.800781 72.710938 357.792969 124.558594 357.695312 176.738281 Z M 357.695312 176.738281 " fill-opacity="1" fill-rule="nonzero" data-index="5"></path><path fill="#e33d3b" d="M 357.722656 183.042969 C 357.304688 182.328125 356.9375 181.3125 356.542969 180.050781 C 356.777344 179.417969 357.042969 179.027344 357.457031 178.535156 C 357.660156 179.867188 357.714844 181.304688 357.722656 183.042969 Z M 357.722656 183.042969 " fill-opacity="1" fill-rule="nonzero" data-index="6"></path><path fill="#e33d3b" d="M 357.542969 17.132812 C 357.304688 16.949219 357.144531 16.566406 357.050781 15.96875 C 357.289062 16.148438 357.453125 16.539062 357.542969 17.132812 Z M 357.542969 17.132812 " fill-opacity="1" fill-rule="nonzero" data-index="7"></path></svg>